<svg xmlns="http://www.w3.org/2000/svg" width="800" height="800" viewBox="-22.03 0 247.102 247.102"><defs><style>.a{fill:#fff}.c{fill:#211715}</style></defs><path d="M42.023 36.978C50.261 12.9 73.176 2.746 98.49 2.346c13.444.489 27.657 4.334 37.673 11.966 10.4 7.924 16.867 16.026 19.392 28.682 1.789 8.959 1.3 14.177.326 21.022l-1.8 8.326a9.1 9.1 0 0 1 4.494-.566A7.66 7.66 0 0 1 164 74.914a8.34 8.34 0 0 1 1.117 3.733c.5 5.031.406 10.044-2.215 14.628A16.6 16.6 0 0 1 157.871 99a20.7 20.7 0 0 1-7.532 2.842l-.529.071c-2.982 11.651-14.672 25.668-35.031 31.3-9.691 2.892-24.787 3.276-35.445.567-18.91-5.2-31.155-19.774-33.4-31.882l-.712-.058A20.7 20.7 0 0 1 37.691 99a16.6 16.6 0 0 1-5.028-5.727c-2.621-4.584-2.717-9.6-2.215-14.628a8.34 8.34 0 0 1 1.116-3.733 7.67 7.67 0 0 1 5.424-3.138 8.83 8.83 0 0 1 6.393 1.626l-1.574-8.98c-2.689-6.355-2.924-15.965-.977-23.466q.531-2.047 1.193-3.976" class="a"/><path d="M31.262 209.5c3.576-3.294 7.45-6.749 11.535-8.258l.817-.258a46.3 46.3 0 0 1-10.333-10.9c-1.254-1.826-4.95-10.626-4.576-12.8a47.4 47.4 0 0 1 1.639-16.423c2.805-9.02 7.546-19.041 16.995-26.785 4.63-3.783 9.237-6.994 14.654-8.738a51.8 51.8 0 0 0 17.323 8.451c10.676 2.709 25.772 2.325 35.482-.567a57.6 57.6 0 0 0 18.509-8.775c6.954 1.36 12.5 5.066 18.07 9.629 9.449 7.744 14.19 17.765 17 26.785a47.1 47.1 0 0 1 1.65 16.423c-.1 5.17-2.981 10.274-4.279 12.056a60.7 60.7 0 0 1-9.358 10.1c2.957.682 12.432 8.277 17.107 13.682l1.044.823a15.25 15.25 0 0 1 3.611-5 13.85 13.85 0 0 1 11.255-3.214 13.3 13.3 0 0 1 9.463 6.6 16 16 0 0 1 1.719 6.411c.357 4.723-1.353 9.263-3.88 13.391a25.47 25.47 0 0 1-20.85 11.917 9.42 9.42 0 0 1-7.49-3.9c-8.8 1.955-15.432 1.783-24.6.39 0 0-24.455-3.731-37.155-5.539a45.36 45.36 0 0 0-21.868 1.964c-20.37 8-31.793 9.137-53.588 6.56l-.757-.09a8.3 8.3 0 0 1-3.237.613A25.47 25.47 0 0 1 6.31 232.13c-2.527-4.13-4.237-8.668-3.88-13.391a16 16 0 0 1 1.719-6.411 13.3 13.3 0 0 1 9.463-6.6 13.85 13.85 0 0 1 11.255 3.214 14.5 14.5 0 0 1 2.942 3.7c1.117-.978 2.269-2.052 3.453-3.142" style="fill:#79c6e0"/><path d="M62.829 149.454c-.116-5.409 1.357-10.52 2.121-13.623a38.6 38.6 0 0 1 2.509-6.931 52.2 52.2 0 0 0 11.857 4.884c10.676 2.709 25.772 2.325 35.482-.567a57.9 57.9 0 0 0 17.46-8.034 25.5 25.5 0 0 1 2.344 3.685c3.575 7.722 5.269 29.645-6.127 35.937-8.459 4.664-15.675 5.764-23.4 6.468a87 87 0 0 1-24.024-1.441C66.621 166.05 63 157.429 62.829 149.454M72.677 192.6a13.9 13.9 0 0 1 4.374-.294 5.02 5.02 0 0 1 4.22 3.34c.491 1.836-.882 4.086-2.782 4.064 3.207.836 4.937 4.682 4.292 7.932s-3.093 5.872-5.825 7.748a8.8 8.8 0 0 1-4.88 1.858 8.45 8.45 0 0 1-3.479-.937 20.3 20.3 0 0 1-9.531-9.352M127.169 192.114a13.9 13.9 0 0 0-4.336-.638 5.02 5.02 0 0 0-4.469 3c-.634 1.791.557 4.141 2.452 4.27-3.262.579-5.29 4.275-4.9 7.566s2.619 6.095 5.194 8.18a8.8 8.8 0 0 0 4.717 2.238 8.44 8.44 0 0 0 3.54-.66 20.27 20.27 0 0 0 10.233-8.57" class="a"/><path d="M167.726 237.835a57.5 57.5 0 0 1-17.6 1.1c-2.708-.243-5.391-.655-8.078-1.064q-11.694-1.778-23.394-3.516c-4.4-.653-8.808-1.381-13.229-1.905a50.4 50.4 0 0 0-16 .705 44.6 44.6 0 0 0-7.046 2.168 122 122 0 0 1-16.143 5.107c-11.587 2.677-23.359 2.075-35.083.7a2.413 2.413 0 0 0-2.4 2.4 2.46 2.46 0 0 0 2.4 2.4c10.773 1.265 21.581 1.866 32.316-.042a99.3 99.3 0 0 0 15.248-4.124c3.129-1.09 6.172-2.479 9.372-3.356a44.4 44.4 0 0 1 13.275-1.467 124 124 0 0 1 13.734 1.707q12.229 1.8 24.449 3.667c3.086.469 6.17.965 9.275 1.294A62.8 62.8 0 0 0 169 242.463c3.016-.66 1.74-5.289-1.276-4.628ZM30.781 213.2c2.113-1.924 4.177-3.9 6.387-5.718q.411-.336.828-.665c.1-.082.273-.208.07-.054q.232-.176.466-.349a31 31 0 0 1 1.7-1.169c.562-.36 1.137-.7 1.727-1.008.288-.151.58-.3.875-.432q.194-.09.391-.175c-.479.2.166-.055.212-.072a2.456 2.456 0 0 0 1.677-2.953 2.43 2.43 0 0 0-2.953-1.676C36.343 201.12 31.9 205.7 27.387 209.8a2.42 2.42 0 0 0 0 3.394 2.454 2.454 0 0 0 3.394 0ZM155.747 201.749c.073.018.636.24.661.22-.092.07-.576-.275-.128-.042.121.062.244.12.364.183.63.328 1.236.7 1.832 1.088.733.477 1.45.98 2.156 1.5q.631.464 1.252.941c-.343-.265.242.191.249.2q.327.258.651.519a70 70 0 0 1 9.011 8.462 2.42 2.42 0 0 0 3.394 0 2.45 2.45 0 0 0 0-3.394 70.6 70.6 0 0 0-9.384-8.76c-1.611-1.282-3.253-2.539-4.984-3.657a13.2 13.2 0 0 0-3.8-1.883 2.4 2.4 0 0 0-1.276 4.629ZM130.176 126.384a25.5 25.5 0 0 1 2.426 3.853c.261.544-.186-.491.039.093q.07.178.137.355c.167.445.319.9.459 1.349a37 37 0 0 1 1.233 5.656 44.4 44.4 0 0 1-.075 12.653c-.708 4.094-2.059 8.041-4.925 10.781a9.5 9.5 0 0 1-2.206 1.609 44 44 0 0 1-4.947 2.393 49.3 49.3 0 0 1-9.6 2.762 80.7 80.7 0 0 1-19.991 1.085 67.5 67.5 0 0 1-11.006-1.45 24.6 24.6 0 0 1-11.92-6.253 15.7 15.7 0 0 1-3.017-4.4c-.016-.033-.313-.718-.121-.255a16 16 0 0 1-.243-.627q-.191-.522-.352-1.054a22 22 0 0 1-.629-2.774c-.079-.471-.02-.1-.007-.005a21 21 0 0 1-.094-.858q-.069-.746-.094-1.5a30 30 0 0 1 .037-2.737 36 36 0 0 1 .254-2.641c-.08.609.01-.051.025-.147q.06-.386.123-.77.111-.654.239-1.306a53.8 53.8 0 0 1 3.615-12.085 2.47 2.47 0 0 0-.861-3.284 2.42 2.42 0 0 0-3.284.861 58.6 58.6 0 0 0-3.933 12.423 38.8 38.8 0 0 0-.972 10.539A22.07 22.07 0 0 0 64.21 162a25.7 25.7 0 0 0 12.28 8.9 48.4 48.4 0 0 0 11.7 2.457 87.8 87.8 0 0 0 21.438-.179c7.127-.926 14.312-2.8 20.513-6.567 4.183-2.54 6.733-6.93 8.085-11.525a41.7 41.7 0 0 0 1.318-14.779 37.3 37.3 0 0 0-2.76-12.417 22.8 22.8 0 0 0-2.461-3.934 2.47 2.47 0 0 0-3.284-.861 2.42 2.42 0 0 0-.861 3.284Z" class="c"/><path d="M90.625 155.232a14.8 14.8 0 0 1-6.457-2.378 9 9 0 0 1-.911-.779q-.251-.243-.484-.5-.114-.127-.228-.256c-.283-.316.035.069-.114-.131a11 11 0 0 1-.776-1.2c-.106-.189-.2-.383-.3-.577-.049-.1-.092-.195-.138-.293-.165-.355.186.516-.049-.121a16 16 0 0 1-.725-2.674 10 10 0 0 1-.067-.42c.005.034.048.4.017.112a22 22 0 0 1-.062-.632q-.058-.735-.063-1.471a25 25 0 0 1 .14-2.763c.02-.2.044-.393.067-.59-.069.586.014-.088.035-.224q.099-.641.221-1.278c.274-1.424.644-2.823 1.026-4.221.815-2.984-3.814-4.257-4.629-1.276-2.042 7.472-3.283 17.1 3.542 22.619a18.04 18.04 0 0 0 8.681 3.682 2.474 2.474 0 0 0 2.952-1.676 2.42 2.42 0 0 0-1.676-2.952ZM119.945 134c.1.2.187.417.294.617.147.276-.158-.425-.048-.114.049.138.108.273.16.41q.288.774.511 1.57.267.942.45 1.9.1.512.174 1.026c-.038-.262-.01-.1.007.068.02.2.043.4.06.6q.093 1.05.082 2.1-.006.569-.046 1.135-.017.254-.042.507c-.011.112-.07.574-.023.25a15 15 0 0 1-.47 2.14 9.2 9.2 0 0 1-.789 1.973 2.456 2.456 0 0 0 .861 3.284 2.425 2.425 0 0 0 3.284-.861c2.984-5.765 2.581-13.289-.32-19.031a2.4 2.4 0 0 0-4.145 2.426M99.145 90.922a3 3 0 0 1-.26.129l.573-.242a1.8 1.8 0 0 1-.429.117l.638-.085a1.7 1.7 0 0 1-.429-.006l.638.086a5 5 0 0 1-.247-.044c-.281-.055-.565-.086-.849-.122a1.8 1.8 0 0 0-.925.207 2.46 2.46 0 0 0-1.475 2.193l.085.638a2.4 2.4 0 0 0 .618 1.059l.485.375a2.4 2.4 0 0 0 1.212.328h.014l-.638-.086c.1.014.209.038.313.057.263.049.53.079.8.111q.093.01.187.014a2 2 0 0 0 .2-.01c.243-.026.491-.056.732-.1q.055-.01.109-.024a2 2 0 0 0 .247-.083 7 7 0 0 0 .834-.371 2.7 2.7 0 0 0 1.1-1.434 1.8 1.8 0 0 0 .043-.957 1.8 1.8 0 0 0-.285-.892l-.375-.486A2.4 2.4 0 0 0 101 90.68l-.638-.086a2.4 2.4 0 0 0-1.212.328ZM89.364 108.185c2.551 2.5 6.568 3.242 10 3.24s7.445-.742 10-3.24a2.4 2.4 0 0 0-3.394-3.394c-.1.094-.555.457-.2.2s-.252.163-.378.241a9 9 0 0 1-.662.367q-.229.112-.461.217c.292-.134.238-.093-.027 0a12.9 12.9 0 0 1-4.873.809 19 19 0 0 1-2.301-.136c.311.042-.143-.029-.248-.048a13.6 13.6 0 0 1-2.236-.591c-.1-.036-.672-.3-.116-.034-.129-.062-.259-.118-.386-.181a10 10 0 0 1-.736-.4c-.069-.043-.47-.378-.531-.36.148-.043.463.4.151.105-.065-.063-.134-.122-.2-.186a2.4 2.4 0 0 0-3.394 3.394ZM71.357 76.721c-.894 2.894-.332 9.545 5.128 10.1 7.219-.063 7.623-8.107 5.2-11.882-1.98-3.094-7.827-4.366-10.328 1.782M125.8 76.721c.894 2.895.333 9.546-5.127 10.1-7.219-.063-7.623-8.107-5.2-11.882 1.981-3.094 7.827-4.366 10.327 1.782M153.392 75.476c2.388-1.769 6.531-2.075 8.5.575.945 1.274.911 3.243 1 4.75a27.5 27.5 0 0 1-.139 5.529 16.5 16.5 0 0 1-4.573 9.308 15.3 15.3 0 0 1-8.48 3.892 2.415 2.415 0 0 0-1.676 2.952 2.46 2.46 0 0 0 2.952 1.676 19.45 19.45 0 0 0 15.291-12.436 26.1 26.1 0 0 0 1.393-11.352c-.259-3.832-1.032-7.36-4.533-9.5a11.24 11.24 0 0 0-12.157.464 2.474 2.474 0 0 0-.861 3.284 2.417 2.417 0 0 0 3.283.861ZM44.592 71.331a11.21 11.21 0 0 0-10.84-1.116 9.4 9.4 0 0 0-4.162 3.345 11.26 11.26 0 0 0-1.563 5.3c-.746 7.426.634 15.315 6.385 20.57a19.65 19.65 0 0 0 10.173 4.726 2.48 2.48 0 0 0 2.952-1.676 2.417 2.417 0 0 0-1.676-2.952 15.35 15.35 0 0 1-8.338-3.757 16.47 16.47 0 0 1-4.709-9.443 27.5 27.5 0 0 1-.139-5.529c.087-1.5.055-3.435.98-4.713 1.945-2.686 6.117-2.386 8.515-.61a2.417 2.417 0 0 0 3.283-.861 2.456 2.456 0 0 0-.861-3.284" class="c"/><path d="M43.167 98.723c.449 10.3 6.98 19.768 14.592 26.277A54.7 54.7 0 0 0 74 134.574a39 39 0 0 0 5 1.567c.708.165.149.075.045.044.171.05.35.084.524.125q.531.125 1.066.236 1.189.25 2.39.448a77 77 0 0 0 10.318.985 71.6 71.6 0 0 0 22.1-2.448 2.411 2.411 0 0 0-.638-4.714h-.019l.638 4.714c14.234-3.989 28.014-13.131 34.45-26.844a31.9 31.9 0 0 0 2.825-8.954 2.48 2.48 0 0 0-1.676-2.952 2.42 2.42 0 0 0-2.953 1.676c-1.7 11.781-11.029 21.567-21.294 27.307a57.6 57.6 0 0 1-12.628 5.139 2.411 2.411 0 0 0 .638 4.714h.019l-.638-4.714a65 65 0 0 1-17.967 2.312 78.5 78.5 0 0 1-9.859-.553c-1.3-.159-2.6-.376-3.888-.633-.714-.142-1.42-.321-2.132-.473-.157-.033-1.461-.4-.749-.194a61 61 0 0 1-1.521-.455c-10.326-3.265-19.851-10.017-25.609-19.278a27.8 27.8 0 0 1-4.475-12.906c-.135-3.077-4.936-3.094-4.8 0" class="c"/><path d="M57.753 172.7a49.1 49.1 0 0 1 10.577 14.633c.232.489.418.9.605 1.383q.149.382.278.77c.283.844-.128.543.154-.7-.1.433.328-.431.114-.249a2.8 2.8 0 0 0-.342.594c-.77 1.241-1.675 2.4-2.559 3.565-.33.434-.787 1.018-1.362 1.742Q64.2 195.729 63.156 197q-1.857 2.266-3.781 4.477c-.939 1.071-1.881 2.154-2.912 3.139a5 5 0 0 0-.476.434c-.134.167.585-.336.1-.094.477-.236 1.55-.267.549-.335.817.056-.367-.077-.6-.128a28.4 28.4 0 0 1-10.726-5.229 41.5 41.5 0 0 1-6.357-5.824 28 28 0 0 1-4.527-6.266A48 48 0 0 1 32 181.236c-.329-.972-.6-1.951-.839-2.947-.028-.115-.1-.788-.043-.136a3 3 0 0 1-.029-.333 16 16 0 0 0-.061-1.584 44.9 44.9 0 0 1 2.739-18.04A52.8 52.8 0 0 1 43.8 140.785a54 54 0 0 1 8.585-7.615 37.8 37.8 0 0 1 10.256-5.53c2.92-.964 1.669-5.6-1.276-4.628-7.178 2.372-13.762 7.1-19.087 12.4a57.93 57.93 0 0 0-16.092 36.823 30.2 30.2 0 0 0 .414 7.65 43.7 43.7 0 0 0 2.6 7.325 38.2 38.2 0 0 0 10.6 13.775 38.1 38.1 0 0 0 13.5 7.754c1.5.453 3.7 1.188 5.17.379a11.5 11.5 0 0 0 2.615-2.37c2.811-3.025 5.432-6.243 7.985-9.487 1.2-1.524 2.4-3.057 3.509-4.647.738-1.054 1.62-2.218 1.468-3.572a13.1 13.1 0 0 0-1.367-3.7 43 43 0 0 0-2.11-3.991 62 62 0 0 0-6.133-8.588 41 41 0 0 0-3.287-3.465c-2.254-2.108-5.656 1.279-3.394 3.394ZM132.655 126.749c6.336 1.289 11.735 4.715 16.691 8.746a48 48 0 0 1 11.985 14.538 53.8 53.8 0 0 1 5.687 15.418c1.086 5.83 1.439 12.547-.852 18.127-2.077 5.059-6.077 9.249-10.059 12.882a52 52 0 0 1-6.522 5.1q-1.362.901-2.794 1.683-.577.315-1.169.6-.33.161-.665.313-.4.174-.062.032-.202.084-.406.162a14 14 0 0 1-1.95.568c.692-.146.233 0 .06-.017a8 8 0 0 1 1.036.264c-.479-.252.435.445.069.058-.861-.91-1.769-1.77-2.608-2.707-2.486-2.779-4.86-5.665-7.163-8.6a71 71 0 0 1-1.53-2 52 52 0 0 1-1.349-1.874 7 7 0 0 0-.784-1.264c-.244-.207.216.618.139.337-.15-.541-.33 1.753.047.854.211-.5.347-1.053.538-1.566a41.9 41.9 0 0 1 9.969-15.724c2.258-2.118-1.142-5.508-3.394-3.394-4.591 4.309-7.951 10.063-10.389 15.821-.8 1.89-2.074 4.088-1.055 6.095a21.6 21.6 0 0 0 2.013 2.977c2.5 3.359 5.145 6.615 7.872 9.79 1.105 1.287 2.219 2.572 3.407 3.783.867.884 1.853 1.926 3.182 1.942 1.9.023 3.911-.955 5.56-1.769a41.6 41.6 0 0 0 6.444-4.055 56.5 56.5 0 0 0 13.7-14.051c7.258-11.243 4.4-26.152-.62-37.68a54 54 0 0 0-11.091-16.589 52.2 52.2 0 0 0-17.68-12 31 31 0 0 0-4.979-1.44 2.46 2.46 0 0 0-2.952 1.676 2.42 2.42 0 0 0 1.676 2.952Z" class="c"/><path d="M73.315 194.911c1.652-.287 3.683-.69 5.075.518.478.414.91 1.834.1 1.878a2.412 2.412 0 0 0-.638 4.715c2.018.595 2.913 3.035 2.621 4.98-.419 2.783-2.817 5.074-5.067 6.541a5.5 5.5 0 0 1-4.035 1.224 12.3 12.3 0 0 1-4.263-2.066 18.14 18.14 0 0 1-5.969-6.956c-1.389-2.76-5.531-.332-4.144 2.423a22.83 22.83 0 0 0 8.675 9.3 12.58 12.58 0 0 0 6.813 2.161 11.9 11.9 0 0 0 6.31-2.619c3.427-2.526 6.457-6.191 6.522-10.654a9.09 9.09 0 0 0-6.187-8.966l-.638 4.714a5.71 5.71 0 0 0 4.527-8.488c-2.2-4.086-7.035-4.02-10.977-3.337a2.42 2.42 0 0 0-1.676 2.953 2.455 2.455 0 0 0 2.952 1.676ZM127.807 189.8c-3.957-1.014-8.843-1.245-11.219 2.823a5.69 5.69 0 0 0 4.228 8.519l-.638-4.715c-4.056.859-6.612 4.907-6.71 8.885-.106 4.258 2.637 8.148 5.793 10.751a11.8 11.8 0 0 0 6.158 3.018 12.94 12.94 0 0 0 6.939-1.713 22.8 22.8 0 0 0 9.314-8.658c1.607-2.648-2.543-5.063-4.144-2.422a18 18 0 0 1-6.226 6.195 13 13 0 0 1-4.319 1.791 5.3 5.3 0 0 1-4.1-1.419c-2.123-1.629-4.323-4.058-4.6-6.843-.217-2.163.964-4.488 3.174-4.956a2.38 2.38 0 0 0 1.719-2.633 2.45 2.45 0 0 0-2.357-2.081c.2.026-.192-.457-.228-.732a1.46 1.46 0 0 1 .666-1.143c1.5-1.145 3.652-.455 5.277-.039 2.994.767 4.271-3.861 1.276-4.628ZM175.473 218.164c.939-2.905 2.224-5.811 4.661-7.777a11.54 11.54 0 0 1 7.707-2.421 11 11 0 0 1 7.121 3.142 11.9 11.9 0 0 1 3.249 8.06 18.53 18.53 0 0 1-2.094 9.07 30 30 0 0 1-1.9 3.321 13.4 13.4 0 0 1-1.392 1.828 23.5 23.5 0 0 1-11.511 7.475c-2.881.792-6.288 1.406-8.969-.244a6.7 6.7 0 0 1-2.938-7.829c.924-2.955-3.708-4.219-4.628-1.276a11.43 11.43 0 0 0 2.6 11.195 12.25 12.25 0 0 0 10.482 3.624 27.84 27.84 0 0 0 17.036-8.125c4.561-4.578 7.86-11.041 8.114-17.547a17.7 17.7 0 0 0-3.443-11.565 15.67 15.67 0 0 0-9.159-5.616 16.3 16.3 0 0 0-12.429 2.551c-3.722 2.665-5.761 6.591-7.141 10.858-.952 2.946 3.681 4.208 4.629 1.276ZM32.169 216.888c-1.189-3.679-2.872-7.354-5.895-9.9a16.37 16.37 0 0 0-10.709-3.838 16.15 16.15 0 0 0-10.223 3.934 16.04 16.04 0 0 0-5.2 10.544c-.856 6.936 2.228 14.065 6.729 19.243a27.75 27.75 0 0 0 15.35 9.038c4.484.874 8.782.726 12.438-2.3a11.41 11.41 0 0 0 3.571-12.1c-.919-2.938-5.554-1.684-4.629 1.276a6.68 6.68 0 0 1-2.3 7.4c-2.282 1.781-5.107 1.616-7.8 1.092a23.23 23.23 0 0 1-12.275-6.759 18.5 18.5 0 0 1-3.068-3.984 22.3 22.3 0 0 1-3.285-8.825 13.75 13.75 0 0 1 2.019-9.267 11.02 11.02 0 0 1 6.615-4.265 11.47 11.47 0 0 1 8.945 1.878c2.707 1.92 4.1 5.042 5.092 8.1.947 2.927 5.583 1.675 4.628-1.276ZM44.122 63.785c-2.49-6.027-2.722-13.127-1.57-19.487a46.4 46.4 0 0 1 6.454-16.424c5.694-8.99 14.628-15.349 24.568-18.895A70.17 70.17 0 0 1 109.358 5.9a64.5 64.5 0 0 1 19.792 6.725 57 57 0 0 1 14.87 12.052c8.231 9.3 11.249 22.153 10.083 34.344a97 97 0 0 1-.536 4.361 2.48 2.48 0 0 0 1.676 2.952 2.42 2.42 0 0 0 2.953-1.676 80 80 0 0 0 .953-9.822 56.7 56.7 0 0 0-1.007-11.043 45.2 45.2 0 0 0-7.357-18.261C142.552 13.919 129.878 6 116.213 2.483A71.5 71.5 0 0 0 94.3.1a83 83 0 0 0-18.273 3.044c-11.263 3.283-21.593 9.485-28.771 18.88C39.1 32.705 35.241 47.09 38.048 60.338a27 27 0 0 0 1.445 4.723 2.48 2.48 0 0 0 2.952 1.677 2.416 2.416 0 0 0 1.677-2.953" class="c"/><path d="M91.891 42.139c-.2.751-.432 1.483-.684 2.218q-.099.25.081-.181-.05.117-.1.232-.088.193-.182.382c-.151.3-.315.6-.491.888s-.362.572-.56.846c-.046.064-.358.434-.119.163s-.14.161-.187.216a13.5 13.5 0 0 1-1.373 1.382q-.194.165-.39.327c-.342.287.259-.179.016-.013s-.507.36-.77.527q-.43.274-.878.513a3.6 3.6 0 0 1-.914.445c.249-.041.344-.14.025-.017q-.236.092-.477.174-.44.15-.89.268-.492.127-.992.215l-.167.028q-.4.06.134-.016a1.5 1.5 0 0 1-.506.048 2.4 2.4 0 1 0 0 4.8 15.83 15.83 0 0 0 9.075-3.794 16.1 16.1 0 0 0 4.98-8.375 2.4 2.4 0 1 0-4.628-1.276ZM107.88 44.177c0 .271 0 .541-.015.811-.009.162-.025.323-.038.485-.037.454.068-.381.015-.076a14 14 0 0 1-.379 1.655q-.12.387-.264.765c-.034.09-.256.474-.063.164s-.041.076-.079.157a12.4 12.4 0 0 1-.838 1.482 11 11 0 0 1-.229.335c-.045.065-.312.459-.1.149s-.063.075-.115.138c-.087.1-.175.207-.265.308a12 12 0 0 1-1.215 1.189c-.062.052-.407.373-.135.118s-.075.055-.145.1q-.329.236-.674.447-.38.233-.777.435-.18.09-.364.177c-.434.211.462-.182-.024.013a2.46 2.46 0 0 0-1.676 2.952 2.425 2.425 0 0 0 2.952 1.676 14.7 14.7 0 0 0 6.823-5.483 14.14 14.14 0 0 0 2.407-8 2.4 2.4 0 0 0-4.8 0Z" class="c"/></svg>